<?xml version="1.0" encoding="UTF-8"?><svg id="Layer_2" xmlns="http://www.w3.org/2000/svg" viewBox="0 0 57.83 54.43"><defs><style>.cls-1{fill:#fff;}</style></defs><g id="Layer_1-2"><rect class="cls-1" x="4.23" y="3.67" width="50" height="47"/><path d="m51.88,0H5.95C2.67,0,0,2.67,0,5.95v42.52c0,3.29,2.67,5.95,5.95,5.95h45.93c3.29,0,5.95-2.67,5.95-5.95V5.95c0-3.29-2.67-5.95-5.95-5.95Zm-4.14,32.02c-1.7,2.77-4.27,5.04-7.7,6.91-3.43,1.87-7.68,3.17-12.75,4.06-5.92,1.05-11.83,2.37-17.75,4.01V12c5.92-1.64,11.83-2.97,17.75-4.01,5.07-.89,9.32-.71,12.75.39,3.43,1.1,6,2.94,7.7,5.44,1.7,2.5,2.55,5.48,2.55,8.92,0,3.44-.85,6.52-2.55,9.28Z"/><path d="m34.94,15.52c-2-.54-4.55-.57-7.65-.02-2.92.52-5.83,1.1-8.75,1.75v20c2.92-.66,5.83-1.24,8.75-1.75,3.1-.55,5.65-1.33,7.65-2.42,2-1.09,3.48-2.42,4.43-4.01.95-1.59,1.42-3.42,1.42-5.49,0-2.07-.48-3.79-1.42-5.16-.95-1.37-2.43-2.35-4.43-2.89Z"/></g></svg>